<svg width="32" height="32" viewBox="0 0 32 32" fill="none" xmlns="http://www.w3.org/2000/svg">
<path d="M9.33333 14.6666H12V17.3333H9.33333V14.6666ZM28 6.66665V25.3333C28 26.8133 26.8133 28 25.3333 28H6.66667C5.95942 28 5.28115 27.719 4.78105 27.2189C4.28095 26.7188 4 26.0406 4 25.3333V6.66665C4 5.19998 5.2 3.99998 6.66667 3.99998H8V1.33331H10.6667V3.99998H21.3333V1.33331H24V3.99998H25.3333C26.0406 3.99998 26.7189 4.28093 27.219 4.78103C27.719 5.28112 28 5.9594 28 6.66665ZM6.66667 9.33331H25.3333V6.66665H6.66667V9.33331ZM25.3333 25.3333V12H6.66667V25.3333H25.3333ZM20 17.3333V14.6666H22.6667V17.3333H20ZM14.6667 17.3333V14.6666H17.3333V17.3333H14.6667ZM9.33333 20H12V22.6666H9.33333V20ZM20 22.6666V20H22.6667V22.6666H20ZM14.6667 22.6666V20H17.3333V22.6666H14.6667Z" fill="#2EAB67"/>
</svg>
