<svg width="24" height="24" viewBox="0 0 24 24" fill="none" xmlns="http://www.w3.org/2000/svg">
<path d="M10.0008 13.6L15.9008 7.69999C16.0841 7.51665 16.3174 7.42499 16.6008 7.42499C16.8841 7.42499 17.1174 7.51665 17.3008 7.69999C17.4841 7.88332 17.5758 8.11665 17.5758 8.39999C17.5758 8.68332 17.4841 8.91665 17.3008 9.09999L10.7008 15.7C10.5008 15.9 10.2674 16 10.0008 16C9.73411 16 9.50078 15.9 9.30078 15.7L6.70078 13.1C6.51745 12.9167 6.42578 12.6833 6.42578 12.4C6.42578 12.1167 6.51745 11.8833 6.70078 11.7C6.88411 11.5167 7.11745 11.425 7.40078 11.425C7.68411 11.425 7.91745 11.5167 8.10078 11.7L10.0008 13.6Z" fill="#F55D3E"/>
</svg>
