<svg width="40" height="40" viewBox="0 0 40 40" fill="none" xmlns="http://www.w3.org/2000/svg">
<path d="M20.0013 22.3334L11.8346 30.5001C11.5291 30.8056 11.1402 30.9584 10.668 30.9584C10.1957 30.9584 9.80686 30.8056 9.5013 30.5001C9.19575 30.1945 9.04297 29.8056 9.04297 29.3334C9.04297 28.8612 9.19575 28.4723 9.5013 28.1667L17.668 20.0001L9.5013 11.8334C9.19575 11.5279 9.04297 11.139 9.04297 10.6667C9.04297 10.1945 9.19575 9.80564 9.5013 9.50008C9.80686 9.19453 10.1957 9.04175 10.668 9.04175C11.1402 9.04175 11.5291 9.19453 11.8346 9.50008L20.0013 17.6667L28.168 9.50008C28.4735 9.19453 28.8624 9.04175 29.3346 9.04175C29.8069 9.04175 30.1957 9.19453 30.5013 9.50008C30.8069 9.80564 30.9596 10.1945 30.9596 10.6667C30.9596 11.139 30.8069 11.5279 30.5013 11.8334L22.3346 20.0001L30.5013 28.1667C30.8069 28.4723 30.9596 28.8612 30.9596 29.3334C30.9596 29.8056 30.8069 30.1945 30.5013 30.5001C30.1957 30.8056 29.8069 30.9584 29.3346 30.9584C28.8624 30.9584 28.4735 30.8056 28.168 30.5001L20.0013 22.3334Z" fill="#F55D3E"/>
</svg>
