<svg width="25" height="24" viewBox="0 0 25 24" fill="none" xmlns="http://www.w3.org/2000/svg">
<path d="M12.5 22C11.1333 22 9.84167 21.7373 8.625 21.212C7.40833 20.6867 6.34567 19.97 5.437 19.062C4.529 18.154 3.81233 17.0917 3.287 15.875C2.76167 14.6583 2.49933 13.3667 2.5 12C2.5 10.6167 2.76267 9.32067 3.288 8.112C3.81333 6.90333 4.53 5.84533 5.438 4.938C6.346 4.02933 7.408 3.31267 8.624 2.788C9.84 2.26333 11.132 2.00067 12.5 2C13.8833 2 15.1793 2.26267 16.388 2.788C17.5967 3.31333 18.6547 4.03 19.562 4.938C20.4707 5.846 21.1873 6.90433 21.712 8.113C22.2367 9.32167 22.4993 10.6173 22.5 12C22.5 13.3667 22.2373 14.6583 21.712 15.875C21.1867 17.0917 20.47 18.1543 19.562 19.063C18.654 19.971 17.5957 20.6877 16.387 21.213C15.1783 21.7383 13.8827 22.0007 12.5 22ZM12.5 19.95C12.9333 19.35 13.3083 18.725 13.625 18.075C13.9417 17.425 14.2 16.7333 14.4 16H10.6C10.8 16.7333 11.0583 17.425 11.375 18.075C11.6917 18.725 12.0667 19.35 12.5 19.95ZM9.9 19.55C9.6 19 9.33734 18.429 9.112 17.837C8.88667 17.245 8.69934 16.6327 8.55 16H5.6C6.08333 16.8333 6.68767 17.5583 7.413 18.175C8.13833 18.7917 8.96733 19.25 9.9 19.55ZM15.1 19.55C16.0333 19.25 16.8627 18.7917 17.588 18.175C18.3133 17.5583 18.9173 16.8333 19.4 16H16.45C16.3 16.6333 16.1127 17.246 15.888 17.838C15.6633 18.43 15.4007 19.0007 15.1 19.55ZM4.75 14H8.15C8.1 13.6667 8.06234 13.3373 8.037 13.012C8.01167 12.6867 7.99933 12.3493 8 12C8 11.65 8.01267 11.3127 8.038 10.988C8.06333 10.6633 8.10067 10.334 8.15 10H4.75C4.66667 10.3333 4.604 10.6627 4.562 10.988C4.52 11.3133 4.49933 11.6507 4.5 12C4.5 12.35 4.521 12.6873 4.563 13.012C4.605 13.3367 4.66733 13.666 4.75 14ZM10.15 14H14.85C14.9 13.6667 14.9377 13.3373 14.963 13.012C14.9883 12.6867 15.0007 12.3493 15 12C15 11.65 14.9873 11.3127 14.962 10.988C14.9367 10.6633 14.8993 10.334 14.85 10H10.15C10.1 10.3333 10.0623 10.6627 10.037 10.988C10.0117 11.3133 9.99933 11.6507 10 12C10 12.35 10.0127 12.6873 10.038 13.012C10.0633 13.3367 10.1007 13.666 10.15 14ZM16.85 14H20.25C20.3333 13.6667 20.396 13.3373 20.438 13.012C20.48 12.6867 20.5007 12.3493 20.5 12C20.5 11.65 20.479 11.3127 20.437 10.988C20.395 10.6633 20.3327 10.334 20.25 10H16.85C16.9 10.3333 16.9377 10.6627 16.963 10.988C16.9883 11.3133 17.0007 11.6507 17 12C17 12.35 16.9873 12.6873 16.962 13.012C16.9367 13.3367 16.8993 13.666 16.85 14ZM16.45 8H19.4C18.9167 7.16667 18.3127 6.44167 17.588 5.825C16.8633 5.20833 16.034 4.75 15.1 4.45C15.4 5 15.6627 5.571 15.888 6.163C16.1133 6.755 16.3007 7.36733 16.45 8ZM10.6 8H14.4C14.2 7.26667 13.9417 6.575 13.625 5.925C13.3083 5.275 12.9333 4.65 12.5 4.05C12.0667 4.65 11.6917 5.275 11.375 5.925C11.0583 6.575 10.8 7.26667 10.6 8ZM5.6 8H8.55C8.7 7.36667 8.88767 6.754 9.113 6.162C9.33833 5.57 9.60067 4.99933 9.9 4.45C8.96667 4.75 8.13733 5.20833 7.412 5.825C6.68667 6.44167 6.08267 7.16667 5.6 8Z" fill="#2EAB67"/>
</svg>
