<svg width="40" height="40" viewBox="0 0 40 40" fill="none" xmlns="http://www.w3.org/2000/svg">
<path d="M18.4718 5.20962C19.3697 4.27237 20.8743 4.27868 21.7642 5.22345L34.8315 19.0958C35.6874 20.0045 37.1212 20.0504 38.034 19.1984C38.9468 18.3464 38.993 16.9191 38.1371 16.0104L34.6637 12.3231V4.53906C34.6637 3.29345 33.6493 2.28368 32.398 2.28368C31.1467 2.28368 30.1323 3.29345 30.1323 4.53906V7.51248L25.0698 2.13806C22.4 -0.696216 17.8862 -0.715175 15.1925 2.0966L3.12818 14.6896C1.92258 15.948 1.25 17.6202 1.25 19.3591V33.2339C1.25 36.9707 4.29319 40 8.04715 40H8.09539L8.14359 39.998C10.5782 39.8947 12.1555 37.9439 12.5034 36.0329C13.2124 32.138 16.3405 29.4219 19.8476 29.4219C23.3227 29.4219 26.4244 32.0873 27.1717 35.9264C27.5528 37.8839 29.183 39.8993 31.701 39.9923L31.9108 40H31.9528C35.7068 40 38.75 36.9707 38.75 33.2339V25.1289C38.75 23.8833 37.7356 22.8736 36.4843 22.8736C35.2329 22.8736 34.2186 23.8833 34.2186 25.1289V33.2339C34.2186 34.4679 33.223 35.4704 31.9877 35.489L31.8705 35.4847L31.8693 35.4841C31.8629 35.4812 31.8399 35.4693 31.8065 35.4367C31.7328 35.3649 31.6526 35.2339 31.6204 35.0683C30.5154 29.3919 25.7708 24.9111 19.8476 24.9111C13.8686 24.9111 9.09187 29.4752 8.04456 35.2287C8.03433 35.2849 8.01542 35.3389 7.99065 35.3863C7.96597 35.4336 7.93971 35.4662 7.92 35.4858C6.72783 35.4201 5.78144 34.437 5.78144 33.2339V19.3591C5.78144 18.7795 6.00563 18.2221 6.40749 17.8026L18.4718 5.20962Z" fill="#F55D3E"/>
<path fill-rule="evenodd" clip-rule="evenodd" d="M26.99 17.0653C26.99 20.8962 23.8702 24.0018 20.0218 24.0018C16.1733 24.0018 13.0535 20.8962 13.0535 17.0653C13.0535 13.2344 16.1733 10.1288 20.0218 10.1288C23.8702 10.1288 26.99 13.2344 26.99 17.0653ZM22.4586 17.0653C22.4586 18.405 21.3676 19.491 20.0218 19.491C18.676 19.491 17.585 18.405 17.585 17.0653C17.585 15.7256 18.676 14.6396 20.0218 14.6396C21.3676 14.6396 22.4586 15.7256 22.4586 17.0653Z" fill="#F55D3E"/>
</svg>
