<svg width="128" height="128" viewBox="0 0 128 128" fill="none" xmlns="http://www.w3.org/2000/svg">
<g clip-path="url(#clip0_738_2234)">
<path d="M64 0C28.6539 0 0 28.6539 0 64C0 99.3461 28.6539 128 64 128C99.346 128 128 99.3461 128 64C128 28.6539 99.346 0 64 0ZM64 13.9062C91.666 13.9062 114.086 36.3409 114.086 64C114.086 91.6592 91.666 114.086 64 114.086C36.3339 114.086 13.914 91.6592 13.914 64C13.9141 36.3409 36.3339 13.9062 64 13.9062ZM88.5234 33.6094L51.4297 70.7109L39.3984 58.6797L27.5937 70.4766L39.625 82.5078L51.5077 94.3906L63.3047 82.5859L100.406 45.4922L88.5234 33.6094Z" fill="#2EAB67"/>
</g>
<defs>
<clipPath id="clip0_738_2234">
<rect width="128" height="128" fill="white"/>
</clipPath>
</defs>
</svg>
