<svg width="32" height="32" viewBox="0 0 32 32" fill="none" xmlns="http://www.w3.org/2000/svg">
<path d="M16 2.66663C17.7509 2.66663 19.4847 3.0115 21.1024 3.68157C22.7201 4.35163 24.1899 5.33375 25.428 6.57187C26.6662 7.80998 27.6483 9.27984 28.3184 10.8975C28.9884 12.5152 29.3333 14.249 29.3333 16C29.3333 19.5362 27.9285 22.9276 25.428 25.428C22.9276 27.9285 19.5362 29.3333 16 29.3333C14.249 29.3333 12.5152 28.9884 10.8975 28.3184C9.27984 27.6483 7.80998 26.6662 6.57187 25.428C4.07138 22.9276 2.66663 19.5362 2.66663 16C2.66663 12.4637 4.07138 9.07235 6.57187 6.57187C9.07235 4.07138 12.4637 2.66663 16 2.66663ZM16 5.33329C13.171 5.33329 10.4579 6.4571 8.45749 8.45749C6.4571 10.4579 5.33329 13.171 5.33329 16C5.33329 18.8289 6.4571 21.542 8.45749 23.5424C10.4579 25.5428 13.171 26.6666 16 26.6666C18.8289 26.6666 21.542 25.5428 23.5424 23.5424C25.5428 21.542 26.6666 18.8289 26.6666 16C26.6666 13.171 25.5428 10.4579 23.5424 8.45749C21.542 6.4571 18.8289 5.33329 16 5.33329ZM16 14C16.5304 14 17.0391 14.2107 17.4142 14.5857C17.7892 14.9608 18 15.4695 18 16C18 16.5304 17.7892 17.0391 17.4142 17.4142C17.0391 17.7892 16.5304 18 16 18C15.4695 18 14.9608 17.7892 14.5857 17.4142C14.2107 17.0391 14 16.5304 14 16C14 15.4695 14.2107 14.9608 14.5857 14.5857C14.9608 14.2107 15.4695 14 16 14ZM9.99996 14C10.5304 14 11.0391 14.2107 11.4142 14.5857C11.7892 14.9608 12 15.4695 12 16C12 16.5304 11.7892 17.0391 11.4142 17.4142C11.0391 17.7892 10.5304 18 9.99996 18C9.46953 18 8.96082 17.7892 8.58575 17.4142C8.21067 17.0391 7.99996 16.5304 7.99996 16C7.99996 15.4695 8.21067 14.9608 8.58575 14.5857C8.96082 14.2107 9.46953 14 9.99996 14ZM22 14C22.5304 14 23.0391 14.2107 23.4142 14.5857C23.7892 14.9608 24 15.4695 24 16C24 16.5304 23.7892 17.0391 23.4142 17.4142C23.0391 17.7892 22.5304 18 22 18C21.4695 18 20.9608 17.7892 20.5857 17.4142C20.2107 17.0391 20 16.5304 20 16C20 15.4695 20.2107 14.9608 20.5857 14.5857C20.9608 14.2107 21.4695 14 22 14Z" fill="#2EAB67"/>
</svg>
