<svg width="32" height="32" viewBox="0 0 32 32" fill="none" xmlns="http://www.w3.org/2000/svg">
<path d="M27.5467 26.6667L18.4934 5.08004C18 3.96004 17.24 3.05337 16.2134 2.36004C15.2 1.68004 14.0667 1.33337 12.8134 1.33337C11.6934 1.33337 10.6667 1.61337 9.73337 2.17337C8.80004 2.73337 8.05337 3.49337 7.50671 4.42671C6.96004 5.36004 6.66671 6.40004 6.66671 7.52004L6.70671 12H2.70671V19.2667C3.53337 18.8934 4.41337 18.7067 5.33337 18.7067V14.7067H12C12.76 14.7067 13.3867 14.9734 13.9067 15.4934C14.4267 16 14.6667 16.6267 14.6667 17.3334V26.7067H11.88C11.6756 27.669 11.2461 28.5691 10.6267 29.3334H17.3334V17.3334C17.3334 16.3734 17.0667 15.4934 16.6 14.6667C16.1334 13.84 15.48 13.2134 14.6667 12.7467C13.8934 12.2667 13 12 12 12H9.33337V7.52004C9.33337 6.56004 9.66671 5.74671 10.3467 5.05337C11.0267 4.36004 11.8534 4.00004 12.8134 4.00004C13.52 4.00004 14.1734 4.21337 14.7467 4.61337C15.32 5.01337 15.7467 5.52004 16 6.14671L24.6134 26.6667L21.3334 26.7067V29.3334H30.6667V26.7067L27.5467 26.6667ZM5.33337 24C6.06671 24 6.66671 24.6 6.66671 25.3334C6.66671 26.0667 6.06671 26.6667 5.33337 26.6667C4.60004 26.6667 4.00004 26.0667 4.00004 25.3334C4.00004 24.6 4.60004 24 5.33337 24ZM5.33337 21.3334C3.12004 21.3334 1.33337 23.12 1.33337 25.3334C1.33337 27.5467 3.12004 29.3334 5.33337 29.3334C7.54671 29.3334 9.33337 27.5467 9.33337 25.3334C9.33337 23.12 7.54671 21.3334 5.33337 21.3334Z" fill="#2EAB67"/>
</svg>
